<mxfile host="app.diagrams.net" modified="2021-09-07T08:15:50.774Z" agent="5.0 (Windows NT 10.0; Win64; x64) AppleWebKit/537.36 (KHTML, like Gecko) Chrome/92.0.4515.159 Safari/537.36" etag="snW_IDhFgK7lXazl7o2K" version="14.9.8" type="github">
  <diagram id="LMr9j66Z95mbcD7S9FgO" name="Page-1">
    <mxGraphModel dx="1662" dy="754" grid="1" gridSize="10" guides="1" tooltips="1" connect="1" arrows="1" fold="1" page="1" pageScale="1" pageWidth="827" pageHeight="1169" math="0" shadow="0">
      <root>
        <mxCell id="0" />
        <mxCell id="1" parent="0" />
        <mxCell id="demzedomTBJXq-XbEHXc-3" value="" style="shape=umlLifeline;participant=umlActor;perimeter=lifelinePerimeter;whiteSpace=wrap;html=1;container=1;collapsible=0;recursiveResize=0;verticalAlign=top;spacingTop=36;outlineConnect=0;" vertex="1" parent="1">
          <mxGeometry x="150" y="120" width="20" height="390" as="geometry" />
        </mxCell>
        <mxCell id="demzedomTBJXq-XbEHXc-4" value="系统" style="shape=umlLifeline;perimeter=lifelinePerimeter;whiteSpace=wrap;html=1;container=1;collapsible=0;recursiveResize=0;outlineConnect=0;" vertex="1" parent="1">
          <mxGeometry x="330" y="120" width="100" height="400" as="geometry" />
        </mxCell>
        <mxCell id="demzedomTBJXq-XbEHXc-9" value="" style="html=1;points=[];perimeter=orthogonalPerimeter;" vertex="1" parent="demzedomTBJXq-XbEHXc-4">
          <mxGeometry x="45" y="80" width="10" height="80" as="geometry" />
        </mxCell>
        <mxCell id="demzedomTBJXq-XbEHXc-12" value="判断文件类型" style="edgeStyle=orthogonalEdgeStyle;html=1;align=left;spacingLeft=2;endArrow=block;rounded=0;entryX=1;entryY=0.763;entryDx=0;entryDy=0;entryPerimeter=0;" edge="1" target="demzedomTBJXq-XbEHXc-9" parent="demzedomTBJXq-XbEHXc-4">
          <mxGeometry relative="1" as="geometry">
            <mxPoint x="55" y="100" as="sourcePoint" />
            <Array as="points">
              <mxPoint x="85" y="100" />
              <mxPoint x="85" y="141" />
            </Array>
            <mxPoint x="60" y="120" as="targetPoint" />
          </mxGeometry>
        </mxCell>
        <mxCell id="demzedomTBJXq-XbEHXc-19" value="文件类型为图片，则调用第三方OCR识别接口" style="html=1;verticalAlign=bottom;endArrow=block;" edge="1" parent="demzedomTBJXq-XbEHXc-4" target="demzedomTBJXq-XbEHXc-5">
          <mxGeometry width="80" relative="1" as="geometry">
            <mxPoint x="50" y="170" as="sourcePoint" />
            <mxPoint x="130" y="170" as="targetPoint" />
          </mxGeometry>
        </mxCell>
        <mxCell id="demzedomTBJXq-XbEHXc-5" value="第三方" style="shape=umlLifeline;perimeter=lifelinePerimeter;whiteSpace=wrap;html=1;container=1;collapsible=0;recursiveResize=0;outlineConnect=0;" vertex="1" parent="1">
          <mxGeometry x="610" y="120" width="100" height="400" as="geometry" />
        </mxCell>
        <mxCell id="demzedomTBJXq-XbEHXc-6" value="上传视频、音频、图片" style="html=1;verticalAlign=bottom;endArrow=block;" edge="1" parent="1">
          <mxGeometry width="80" relative="1" as="geometry">
            <mxPoint x="160" y="191" as="sourcePoint" />
            <mxPoint x="380" y="191" as="targetPoint" />
          </mxGeometry>
        </mxCell>
        <mxCell id="demzedomTBJXq-XbEHXc-14" value="" style="html=1;points=[];perimeter=orthogonalPerimeter;" vertex="1" parent="1">
          <mxGeometry x="375" y="350" width="10" height="80" as="geometry" />
        </mxCell>
        <mxCell id="demzedomTBJXq-XbEHXc-15" value="视频提取语音文件" style="edgeStyle=orthogonalEdgeStyle;html=1;align=left;spacingLeft=2;endArrow=block;rounded=0;entryX=1;entryY=0.763;entryDx=0;entryDy=0;entryPerimeter=0;" edge="1" parent="1">
          <mxGeometry relative="1" as="geometry">
            <mxPoint x="385" y="359.48" as="sourcePoint" />
            <Array as="points">
              <mxPoint x="415" y="359.48" />
              <mxPoint x="415" y="400.48" />
            </Array>
            <mxPoint x="385" y="400.52" as="targetPoint" />
          </mxGeometry>
        </mxCell>
        <mxCell id="demzedomTBJXq-XbEHXc-16" value="调用第三方音频提取文字接口" style="html=1;verticalAlign=bottom;endArrow=block;exitX=1.2;exitY=0.875;exitDx=0;exitDy=0;exitPerimeter=0;" edge="1" parent="1">
          <mxGeometry width="80" relative="1" as="geometry">
            <mxPoint x="387" y="415" as="sourcePoint" />
            <mxPoint x="669.5" y="415" as="targetPoint" />
          </mxGeometry>
        </mxCell>
        <mxCell id="demzedomTBJXq-XbEHXc-18" value="return" style="html=1;verticalAlign=bottom;endArrow=open;dashed=1;endSize=8;" edge="1" parent="1" source="demzedomTBJXq-XbEHXc-4" target="demzedomTBJXq-XbEHXc-3">
          <mxGeometry relative="1" as="geometry">
            <mxPoint x="370" y="430" as="sourcePoint" />
            <mxPoint x="290" y="410" as="targetPoint" />
            <Array as="points">
              <mxPoint x="300" y="470" />
            </Array>
          </mxGeometry>
        </mxCell>
        <mxCell id="demzedomTBJXq-XbEHXc-17" value="return" style="html=1;verticalAlign=bottom;endArrow=open;dashed=1;endSize=8;" edge="1" parent="1">
          <mxGeometry relative="1" as="geometry">
            <mxPoint x="669.5" y="445" as="sourcePoint" />
            <mxPoint x="380" y="445" as="targetPoint" />
            <Array as="points">
              <mxPoint x="560" y="445" />
            </Array>
          </mxGeometry>
        </mxCell>
        <mxCell id="demzedomTBJXq-XbEHXc-20" value="return" style="html=1;verticalAlign=bottom;endArrow=open;dashed=1;endSize=8;" edge="1" parent="1">
          <mxGeometry relative="1" as="geometry">
            <mxPoint x="380" y="329" as="sourcePoint" />
            <mxPoint x="159.5" y="329" as="targetPoint" />
          </mxGeometry>
        </mxCell>
        <mxCell id="demzedomTBJXq-XbEHXc-22" value="return" style="html=1;verticalAlign=bottom;endArrow=open;dashed=1;endSize=8;" edge="1" parent="1">
          <mxGeometry relative="1" as="geometry">
            <mxPoint x="669.5" y="315" as="sourcePoint" />
            <mxPoint x="379.5" y="315" as="targetPoint" />
          </mxGeometry>
        </mxCell>
        <mxCell id="demzedomTBJXq-XbEHXc-23" value="用户" style="text;html=1;strokeColor=none;fillColor=none;align=center;verticalAlign=middle;whiteSpace=wrap;rounded=0;" vertex="1" parent="1">
          <mxGeometry x="140" y="100" width="40" height="20" as="geometry" />
        </mxCell>
      </root>
    </mxGraphModel>
  </diagram>
</mxfile>
